# xmcd CD database file
#
# Track frame offsets:
#	150
#	17646
#	44577
#	64193
#	84756
#	103959
#	123132
#	141171
#	168197
#	187286
#
# Disc length: 2748 seconds
#
# Revision: 0
# Processed by: cddbd v1.5.2PL0 Copyright (c) Steve Scherf et al.
# Submitted via: NeoAudio 9.9.9
#
DISCID=860aba0a
DTITLE=Costa Brava - ¡Otra Vez!
DYEAR=2003
DGENRE=Salsa
TTITLE0=Pequeño Detalle
TTITLE1=Te Voy Hacer Feliz
TTITLE2=Regresa
TTITLE3=El Agricultor
TTITLE4=Ni Llanto Ni Lamento
TTITLE5=No Me Importa
TTITLE6=Decir Adios
TTITLE7=Flor Bonita
TTITLE8=Campo Alegre
TTITLE9=Todo lo Perdi
EXTD=YEAR: 2003
EXTT0=
EXTT1=
EXTT2=
EXTT3=
EXTT4=
EXTT5=
EXTT6=
EXTT7=
EXTT8=
EXTT9=
PLAYORDER=
